<svg width="375" height="812" viewBox="0 0 375 812" fill="none" xmlns="http://www.w3.org/2000/svg">
<g clip-path="url(#clip0_75_38)">
<rect width="375" height="812" fill="#EEEEEE"/>
<circle cx="28.0472" cy="752.336" r="89.8808" transform="rotate(-112.749 28.0472 752.336)" fill="#8FE1D7" fill-opacity="0.45"/>
<circle cx="93.2063" cy="796.161" r="89.8808" transform="rotate(-112.749 93.2063 796.161)" fill="#8FE1D7" fill-opacity="0.45"/>
<path d="M342.828 51.4198C341.415 51.783 340.06 52.3576 338.805 53.1257L245.829 96.158C243.67 96.7013 241.653 97.7354 239.92 99.1871C238.188 100.639 236.783 102.473 235.805 104.559C234.826 106.646 234.298 108.934 234.258 111.262C234.217 113.59 234.666 115.901 235.571 118.031C236.477 120.162 237.817 122.06 239.497 123.591C241.178 125.123 243.157 126.25 245.296 126.894C247.435 127.538 249.681 127.682 251.874 127.317C254.068 126.951 256.157 126.085 257.992 124.78L350.969 81.7473C354.306 80.2118 356.997 77.4655 358.551 74.0119C360.104 70.5583 360.414 66.6288 359.425 62.9438C358.436 59.2589 356.213 56.0654 353.165 53.9488C350.117 51.8322 346.447 50.9343 342.828 51.4198ZM371.141 100.59C369.728 100.953 368.374 101.528 367.119 102.296L243.15 159.672C240.991 160.216 238.974 161.25 237.242 162.702C235.509 164.153 234.104 165.987 233.126 168.074C232.147 170.16 231.619 172.448 231.579 174.776C231.539 177.104 231.987 179.415 232.892 181.546C233.798 183.676 235.138 185.574 236.818 187.106C238.499 188.637 240.479 189.765 242.617 190.408C244.756 191.052 247.002 191.196 249.196 190.831C251.39 190.466 253.478 189.6 255.313 188.294L379.282 130.918C382.619 129.382 385.311 126.636 386.864 123.182C388.417 119.729 388.728 115.799 387.738 112.114C386.749 108.429 384.527 105.236 381.478 103.119C378.43 101.003 374.76 100.105 371.141 100.59ZM368.462 164.105C367.05 164.468 365.695 165.042 364.44 165.811L271.464 208.843C268.459 210.348 266.017 212.851 264.513 215.963C263.009 219.075 262.528 222.624 263.144 226.06C263.76 229.497 265.439 232.63 267.921 234.974C270.403 237.319 273.55 238.745 276.875 239.032L337.52 242.101C341.513 242.979 345.668 242.16 349.072 239.826C352.476 237.491 354.849 233.832 355.67 229.653C356.491 225.475 355.692 221.119 353.45 217.543C351.207 213.968 347.704 211.467 343.711 210.59L376.603 194.432C379.94 192.897 382.632 190.15 384.185 186.697C385.738 183.243 386.049 179.314 385.06 175.629C384.07 171.944 381.848 168.75 378.799 166.634C375.751 164.517 372.081 163.619 368.462 164.105ZM286.149 271.327C282.099 271.797 278.401 273.934 275.867 277.267C273.333 280.601 272.171 284.857 272.637 289.101C273.102 293.345 275.158 297.228 278.35 299.897C281.543 302.565 285.612 303.8 289.661 303.329L319.984 304.864C324.005 305.067 327.931 303.59 330.9 300.756C333.869 297.922 335.637 293.964 335.814 289.753C335.992 285.541 334.565 281.422 331.847 278.3C329.13 275.178 325.344 273.31 321.323 273.107L291 271.572C290.096 271.44 289.183 271.394 288.271 271.434C287.667 271.365 287.06 271.334 286.452 271.342L286.149 271.327Z" fill="#C3E8E4"/>
</g>
<defs>
<clipPath id="clip0_75_38">
<rect width="375" height="812" fill="white"/>
</clipPath>
</defs>
</svg>
