<svg width="242" height="145" viewBox="0 0 242 145" fill="none" xmlns="http://www.w3.org/2000/svg">
<path d="M26.408 80.8283C23.7126 80.8743 21.2898 80.478 19.1396 79.6393C16.9894 78.8007 15.2521 77.5348 13.9277 75.8417C12.6382 74.148 11.9379 72.0941 11.8267 69.68L21.3828 69.5168C21.5462 70.8796 22.0367 71.9217 22.8543 72.643C23.6714 73.3294 24.7275 73.6615 26.0226 73.6394C27.3528 73.6167 28.3978 73.3012 29.1578 72.693C29.9171 72.0498 30.2875 71.1856 30.269 70.1004C30.2535 69.1903 29.9256 68.4431 29.2853 67.8588C28.6801 67.2739 27.9192 66.7967 27.0025 66.4272C26.1208 66.057 24.8532 65.641 23.1996 65.179C20.8067 64.4846 18.8514 63.7826 17.3337 63.0732C15.816 62.3638 14.5023 61.3008 13.3927 59.8842C12.283 58.4675 11.7085 56.604 11.669 54.2937C11.6105 50.8633 12.8074 48.1643 15.2599 46.1966C17.7117 44.1939 20.9329 43.1585 24.9234 43.0904C28.9839 43.0211 32.2735 43.9453 34.7923 45.8632C37.3105 47.746 38.6867 50.4186 38.9208 53.8811L29.2071 54.0469C29.1168 52.8579 28.6634 51.9378 27.847 51.2864C27.0299 50.6001 25.9913 50.2677 24.7311 50.2892C23.646 50.3077 22.776 50.6202 22.1211 51.2266C21.4655 51.798 21.147 52.6263 21.1656 53.7115C21.1859 54.9016 21.7618 55.8197 22.8933 56.4656C24.0248 57.1116 25.7872 57.7993 28.1807 58.5288C30.5747 59.2932 32.5131 60.0305 33.9958 60.7405C35.5136 61.4498 36.827 62.4954 37.936 63.877C39.045 65.2587 39.6184 67.0521 39.656 69.2574C39.6919 71.3577 39.1819 73.2747 38.126 75.0084C37.1052 76.7416 35.5883 78.133 33.5754 79.1828C31.5624 80.2326 29.1733 80.7811 26.408 80.8283ZM86.9265 50.1203L79.4981 79.5544L69.5744 79.7238L64.6293 60.7953L60.1757 79.8842L50.3045 80.0527L41.8233 50.8903L50.802 50.737L55.3076 71.6163L59.8856 50.5819L69.3893 50.4197L74.7332 71.1797L78.4729 50.2646L86.9265 50.1203Z" fill="#39A094"/>
<path d="M135.169 73.3891L134.562 79.7299L130.757 79.3659C128.046 79.1064 125.995 78.2482 124.605 76.7912C123.217 75.3051 122.667 73.0607 122.954 70.0579L123.883 60.3499L120.91 60.0653L121.504 53.8557L124.478 54.1402L125.047 48.193L132.525 48.9086L131.955 54.8558L136.853 55.3245L136.259 61.5342L131.361 61.0655L130.424 70.8609C130.354 71.5898 130.479 72.1313 130.798 72.4854C131.117 72.8396 131.685 73.0557 132.501 73.1338L135.169 73.3891ZM138.408 67.7857C138.65 65.2493 139.373 63.0825 140.574 61.2852C141.805 59.4907 143.388 58.1711 145.322 57.3265C147.286 56.4847 149.463 56.1782 151.853 56.407C154.914 56.6999 157.388 57.7457 159.276 59.5444C161.192 61.3459 162.332 63.735 162.694 66.7117L154.735 65.9501C154.243 64.0201 153.035 62.9631 151.111 62.7789C149.741 62.6478 148.596 63.0825 147.676 64.0831C146.76 65.0545 146.206 66.5314 146.017 68.5138C145.827 70.4962 146.089 72.0658 146.802 73.2226C147.518 74.3502 148.561 74.9796 149.931 75.1107C151.855 75.2949 153.242 74.4861 154.091 72.6845L162.049 73.4461C161.135 76.2418 159.564 78.3568 157.338 79.7913C155.112 81.2258 152.483 81.798 149.451 81.5078C147.061 81.2791 144.981 80.5652 143.213 79.3663C141.474 78.1702 140.17 76.5744 139.302 74.579C138.463 72.5864 138.165 70.322 138.408 67.7857ZM182.564 59.4341C185.362 59.7019 187.518 60.8497 189.03 62.8773C190.545 64.8757 191.148 67.493 190.838 70.729L189.474 84.9849L182.04 84.2735L183.308 71.0233C183.464 69.3908 183.163 68.0822 182.404 67.0975C181.645 66.1128 180.551 65.5522 179.123 65.4155C177.694 65.2788 176.514 65.6218 175.582 66.4447C174.65 67.2675 174.106 68.4952 173.95 70.1278L172.682 83.3779L165.204 82.6623L168.301 50.3023L175.779 51.0179L174.703 62.2564C175.564 61.2503 176.682 60.4893 178.055 59.9735C179.428 59.4577 180.931 59.2779 182.564 59.4341Z" fill="#39A094"/>
<path d="M76.8978 85.8447L69.6784 109.098L62.6887 109.376L53.6424 86.7712L59.5869 86.5343L65.9597 103.619L70.986 86.0802L76.8978 85.8447ZM96.9511 98.5894C96.9719 99.1119 96.961 99.6576 96.9182 100.226L84.2779 100.73C84.4102 101.859 84.8041 102.715 85.4599 103.3C86.1366 103.862 86.9431 104.124 87.8794 104.087C89.273 104.031 90.2185 103.405 90.716 102.207L96.6605 101.97C96.4034 103.18 95.8911 104.28 95.1236 105.27C94.3779 106.26 93.417 107.05 92.2411 107.642C91.0652 108.235 89.7369 108.56 88.2562 108.619C86.4707 108.69 84.8659 108.372 83.442 107.666C82.0181 106.959 80.8859 105.914 80.0457 104.53C79.2054 103.146 78.7475 101.506 78.672 99.612C78.5966 97.7176 78.9117 96.0475 79.6174 94.6018C80.3449 93.1552 81.3903 92.0231 82.7535 91.2055C84.1167 90.3879 85.702 89.943 87.5093 89.871C89.2731 89.8008 90.8556 90.1085 92.2569 90.7942C93.6582 91.4799 94.7672 92.4934 95.584 93.8349C96.4225 95.1754 96.8782 96.7603 96.9511 98.5894ZM91.1767 97.3473C91.1385 96.3892 90.7815 95.6401 90.1057 95.1C89.4299 94.5598 88.6021 94.3093 87.6222 94.3483C86.6859 94.3856 85.902 94.6895 85.2704 95.2599C84.6607 95.8294 84.2995 96.618 84.187 97.6257L91.1767 97.3473ZM105.252 92.4683C105.866 91.4406 106.651 90.6242 107.608 90.019C108.565 89.392 109.642 89.0547 110.84 89.007L111.075 94.9188L109.54 94.98C108.146 95.0355 107.113 95.382 106.441 96.0195C105.767 96.6351 105.461 97.6942 105.521 99.1967L105.858 107.656L100.272 107.879L99.5463 89.6532L105.131 89.4307L105.252 92.4683ZM121.668 107.288C120.078 107.351 118.652 107.136 117.389 106.641C116.126 106.146 115.117 105.444 114.361 104.537C113.604 103.607 113.159 102.556 113.025 101.384L118.545 101.164C118.635 101.793 118.95 102.293 119.488 102.664C120.026 103.035 120.676 103.206 121.438 103.175C122.135 103.147 122.664 102.996 123.023 102.719C123.404 102.421 123.586 102.054 123.568 101.618C123.547 101.096 123.26 100.725 122.706 100.508C122.151 100.268 121.258 100.02 120.027 99.7637C118.708 99.5109 117.607 99.2386 116.723 98.9466C115.838 98.633 115.065 98.1294 114.405 97.436C113.744 96.7208 113.389 95.7426 113.34 94.5015C113.298 93.4563 113.543 92.4978 114.076 91.626C114.629 90.7316 115.451 90.0119 116.541 89.4668C117.654 88.9209 118.983 88.6171 120.529 88.5555C122.815 88.4645 124.634 88.959 125.986 90.0393C127.359 91.1186 128.181 92.5907 128.452 94.4556L123.291 94.6612C123.179 94.0332 122.876 93.5436 122.382 93.1925C121.91 92.8406 121.293 92.6798 120.531 92.7101C119.878 92.7362 119.382 92.8868 119.044 93.1619C118.705 93.4153 118.544 93.7598 118.562 94.1953C118.583 94.7179 118.87 95.099 119.425 95.3386C120.002 95.5773 120.883 95.8039 122.069 96.0184C123.433 96.313 124.547 96.6176 125.41 96.9321C126.272 97.2249 127.034 97.7398 127.696 98.4768C128.379 99.1911 128.756 100.179 128.828 101.441C128.871 102.508 128.604 103.479 128.028 104.352C127.473 105.203 126.639 105.89 125.526 106.415C124.435 106.938 123.148 107.229 121.668 107.288ZM149.262 96.5053C149.282 97.0279 149.271 97.5736 149.229 98.1423L136.588 98.6459C136.721 99.7747 137.115 100.631 137.77 101.216C138.447 101.778 139.253 102.04 140.19 102.003C141.583 101.947 142.529 101.321 143.026 100.123L148.971 99.8864C148.714 101.096 148.202 102.196 147.434 103.186C146.688 104.176 145.727 104.966 144.552 105.558C143.376 106.151 142.047 106.476 140.567 106.535C138.781 106.606 137.176 106.288 135.752 105.582C134.328 104.875 133.196 103.83 132.356 102.446C131.516 101.062 131.058 99.4224 130.982 97.528C130.907 95.6336 131.222 93.9635 131.928 92.5178C132.655 91.0712 133.701 89.9391 135.064 89.1215C136.427 88.3038 138.012 87.859 139.82 87.787C141.583 87.7167 143.166 88.0244 144.567 88.7101C145.969 89.3958 147.078 90.4094 147.894 91.7508C148.733 93.0914 149.189 94.6763 149.262 96.5053ZM143.487 95.2633C143.449 94.3052 143.092 93.5561 142.416 93.0159C141.74 92.4758 140.913 92.2253 139.933 92.2643C138.996 92.3016 138.212 92.6055 137.581 93.1759C136.971 93.7454 136.61 94.534 136.497 95.5417L143.487 95.2633Z" fill="#39A094"/>
<path d="M111.318 38.5844C111.111 38.6078 110.908 38.6608 110.715 38.742L96.7233 42.8713C96.4066 42.9054 96.1012 43.0086 95.8288 43.1737C95.5563 43.3387 95.3235 43.5617 95.1467 43.8266C94.9699 44.0916 94.8535 44.3922 94.8057 44.7071C94.7578 45.0221 94.7798 45.3437 94.87 45.6492C94.9601 45.9547 95.1163 46.2367 95.3274 46.4752C95.5386 46.7137 95.7996 46.9029 96.0919 47.0294C96.3842 47.156 96.7008 47.2167 97.0192 47.2074C97.3376 47.1982 97.6501 47.119 97.9345 46.9757L111.927 42.8463C112.429 42.6993 112.861 42.3763 113.144 41.9365C113.427 41.4967 113.542 40.9695 113.468 40.4517C113.394 39.9338 113.136 39.46 112.741 39.117C112.346 38.7741 111.841 38.585 111.318 38.5844ZM114.453 45.7716C114.246 45.795 114.043 45.848 113.851 45.9291L95.1944 51.4349C94.8776 51.469 94.5723 51.5722 94.2998 51.7373C94.0274 51.9024 93.7946 52.1253 93.6178 52.3903C93.441 52.6553 93.3246 52.9558 93.2767 53.2708C93.2289 53.5857 93.2509 53.9073 93.341 54.2128C93.4312 54.5183 93.5874 54.8003 93.7985 55.0388C94.0097 55.2773 94.2706 55.4665 94.563 55.5931C94.8553 55.7196 95.1719 55.7804 95.4903 55.7711C95.8087 55.7618 96.1212 55.6827 96.4056 55.5393L115.062 50.0335C115.564 49.8865 115.996 49.5635 116.279 49.1237C116.562 48.6839 116.678 48.1567 116.604 47.6389C116.53 47.121 116.271 46.6472 115.876 46.3042C115.482 45.9613 114.976 45.7722 114.453 45.7716ZM112.924 54.3353C112.717 54.3586 112.514 54.4116 112.322 54.4928L98.3295 58.6221C97.8753 58.7712 97.4829 59.0656 97.2129 59.4601C96.9429 59.8545 96.8104 60.3269 96.8358 60.8042C96.8612 61.2815 97.0432 61.7372 97.3536 62.1007C97.664 62.4642 98.0855 62.7153 98.5529 62.8152L107.117 64.3441C107.668 64.5364 108.273 64.5016 108.799 64.2475C109.325 63.9934 109.729 63.5407 109.921 62.9892C110.113 62.4376 110.079 61.8322 109.824 61.3063C109.57 60.7803 109.118 60.3769 108.566 60.1846L113.533 58.5971C114.035 58.4502 114.467 58.1271 114.75 57.6873C115.033 57.2475 115.149 56.7203 115.075 56.2025C115.001 55.6846 114.743 55.2108 114.348 54.8679C113.953 54.5249 113.447 54.3358 112.924 54.3353ZM99.2871 67.3646C98.703 67.3541 98.1388 67.576 97.7183 67.9815C97.2979 68.387 97.0558 68.943 97.0453 69.527C97.0348 70.111 97.2567 70.6753 97.6622 71.0957C98.0677 71.5161 98.6237 71.7582 99.2077 71.7687L103.49 72.5332C104.057 72.6346 104.642 72.5062 105.115 72.1764C105.588 71.8466 105.911 71.3423 106.013 70.7745C106.114 70.2067 105.986 69.6219 105.656 69.1487C105.326 68.6755 104.822 68.3527 104.254 68.2514L99.9722 67.4869C99.846 67.4524 99.7171 67.4294 99.5868 67.4181C99.5022 67.3977 99.4164 67.3824 99.3299 67.3722L99.2871 67.3646Z" fill="#39A094"/>
</svg>
